<?xml version="1.0" standalone="no"?>
<!DOCTYPE svg PUBLIC "-//W3C//DTD SVG 20010904//EN"
 "http://www.w3.org/TR/2001/REC-SVG-20010904/DTD/svg10.dtd">
<svg version="1.0" xmlns="http://www.w3.org/2000/svg"
 width="400.000000pt" height="400.000000pt" viewBox="0 0 400.000000 400.000000"
 preserveAspectRatio="xMidYMid meet">

<g transform="translate(0.000000,400.000000) scale(0.100000,-0.100000)"
fill="#000000" stroke="none">
<path d="M1918 2486 c-61 -17 -111 -56 -145 -114 -24 -40 -28 -58 -28 -122 l0
-75 95 -164 c101 -173 125 -201 164 -183 30 13 204 310 218 373 15 62 -2 143
-41 196 -54 75 -170 114 -263 89z m135 -27 c64 -17 122 -79 141 -149 7 -23 6
-24 -8 -7 -8 10 -32 28 -53 39 -21 11 -48 29 -59 40 -21 19 -22 19 -66 -3 -43
-21 -47 -21 -77 -6 -32 16 -33 16 -83 -23 -27 -22 -54 -40 -59 -40 -5 0 -9 -5
-9 -12 0 -9 3 -9 12 0 19 19 30 14 17 -9 -10 -19 -12 -20 -27 -6 -14 15 -14
20 2 56 47 103 156 152 269 120z m-23 -135 c-7 -7 -24 -14 -39 -14 -25 1 -25
1 -6 16 11 8 20 19 20 25 0 5 7 14 15 19 19 12 27 -24 10 -46z m-131 3 c-24
-19 -24 -19 -27 3 -4 27 17 43 36 27 12 -9 10 -14 -9 -30z m235 -53 c9 -9 15
-9 28 3 14 13 17 11 28 -23 23 -67 -26 -155 -113 -201 -47 -25 -141 -23 -194
5 -36 19 -98 81 -89 89 2 2 16 -3 32 -12 56 -29 167 -13 210 30 40 40 15 64
-98 89 -35 7 -53 17 -53 26 0 9 7 13 15 11 8 -3 25 -5 38 -5 12 -1 22 -4 22
-8 0 -5 29 -8 65 -8 54 0 67 3 77 20 8 13 14 16 17 8 2 -7 9 -17 15 -24z"/>
<path d="M2418 2361 c-23 -26 -28 -28 -79 -23 -49 5 -53 4 -40 -11 7 -10 19
-17 25 -17 6 0 17 -4 25 -9 12 -8 12 -13 -3 -36 -10 -15 -23 -24 -31 -21 -26
9 -25 -8 1 -31 34 -29 44 -29 44 1 0 13 7 29 15 36 13 11 21 8 45 -15 33 -32
37 -24 19 38 -8 31 -8 42 4 55 8 10 18 27 21 40 10 32 -17 29 -46 -7z"/>
<path d="M1614 1749 c-8 -14 11 -33 25 -25 6 4 11 11 11 16 0 13 -29 20 -36 9z"/>
<path d="M2454 1749 c-8 -14 11 -33 25 -25 6 4 11 11 11 16 0 13 -29 20 -36 9z"/>
<path d="M1350 1730 c0 -5 14 -10 30 -10 l30 0 0 -80 c0 -63 3 -80 15 -80 11
0 15 18 17 78 3 76 3 77 31 80 57 7 24 22 -48 22 -43 0 -75 -4 -75 -10z"/>
<path d="M1963 1720 c-44 -40 -38 -113 13 -146 22 -15 31 -16 57 -6 21 8 33 9
35 2 9 -27 22 -4 22 40 0 51 -7 58 -44 44 -20 -8 -21 -24 -1 -24 22 0 18 -28
-6 -40 -34 -19 -69 11 -69 60 0 64 47 92 85 50 21 -23 35 -26 35 -7 0 44 -89
63 -127 27z"/>
<path d="M1510 1629 c0 -55 3 -69 15 -69 11 0 15 12 15 44 0 42 18 76 41 76 5
0 9 4 9 9 0 4 -18 8 -40 8 l-40 0 0 -68z"/>
<path d="M1610 1630 c0 -63 2 -70 20 -70 18 0 20 7 20 70 0 63 -2 70 -20 70
-18 0 -20 -7 -20 -70z"/>
<path d="M1686 1691 c-2 -3 -3 -44 -2 -91 1 -72 4 -85 19 -88 14 -3 17 4 17
32 0 34 1 35 20 24 17 -11 25 -10 48 2 21 13 28 24 30 57 4 55 -14 72 -79 71
-27 -1 -51 -4 -53 -7z m93 -25 c17 -20 10 -67 -11 -79 -23 -15 -48 8 -48 42 0
45 35 66 59 37z"/>
<path d="M2140 1673 c-25 -32 -20 -69 12 -95 25 -22 47 -23 76 -2 25 17 29 34
7 34 -8 0 -15 -4 -15 -9 0 -15 -32 -22 -46 -10 -29 24 -16 37 34 36 45 -2 47
-1 44 23 -6 54 -76 69 -112 23z m78 -10 c2 -9 -7 -13 -27 -13 -30 0 -39 9 -24
24 11 10 46 3 51 -11z"/>
<path d="M2290 1630 c0 -56 3 -70 15 -70 11 0 15 12 15 49 0 51 18 78 45 67
11 -4 15 -21 15 -61 0 -48 3 -56 18 -53 19 4 24 39 15 96 -6 37 -43 53 -75 33
-11 -7 -18 -7 -18 -1 0 5 -7 10 -15 10 -12 0 -15 -14 -15 -70z"/>
<path d="M2450 1629 c0 -62 2 -70 18 -67 14 3 18 16 20 71 3 62 1 67 -18 67
-18 0 -20 -6 -20 -71z"/>
<path d="M2535 1680 c-25 -27 -22 -80 6 -102 26 -22 48 -23 77 -2 25 17 29 34
7 34 -8 0 -15 -4 -15 -9 0 -17 -34 -22 -49 -7 -20 21 -9 29 41 30 50 1 61 23
29 55 -27 27 -73 27 -96 1z m73 -17 c2 -9 -7 -13 -27 -13 -31 0 -42 14 -18 23
19 8 40 3 45 -10z"/>
<path d="M1850 1630 c0 -5 9 -10 19 -10 11 0 23 5 26 10 4 6 -5 10 -19 10 -14
0 -26 -4 -26 -10z"/>
</g>
</svg>
